<svg xmlns="http://www.w3.org/2000/svg" width="24" height="22" viewBox="0 0 24 22">
  <path id="basket_копия" d="M1743.8,1488a0.825,0.825,0,0,0,0,1.65h2.55l2.75,13.38a1.025,1.025,0,0,0,.83.92h13.35a0.825,0.825,0,0,0,0-1.65h-12.7l-0.34-1.65h14.1a0.828,0.828,0,0,0,.78-0.65l1.87-8.24a0.862,0.862,0,0,0-.78-1.01h-17.99l-0.44-2.1a0.83,0.83,0,0,0-.78-0.65h-3.2Zm4.75,4.4h4.85v2.47h-4.34Zm6.45,0h3.74v2.47H1755v-2.47Zm5.34,0h4.86l-0.56,2.47h-4.3v-2.47Zm-10.94,4.12h4V1499h-3.49Zm5.6,0h3.74V1499H1755v-2.48Zm5.34,0h3.93l-0.56,2.48h-3.37v-2.48Zm-7.74,7.98a2.751,2.751,0,1,0,2.67,2.75A2.726,2.726,0,0,0,1752.6,1504.5Zm8.01,0a2.751,2.751,0,1,0,2.67,2.75A2.719,2.719,0,0,0,1760.61,1504.5Zm-8.01,1.65a1.1,1.1,0,1,1-1.07,1.1A1.072,1.072,0,0,1,1752.6,1506.15Zm8.01,0a1.1,1.1,0,1,1-1.07,1.1A1.064,1.064,0,0,1,1760.61,1506.15Z" transform="translate(-1743 -1488)"/>
</svg>
